<mxfile host="app.diagrams.net" modified="2022-03-17T08:02:02.641Z" agent="5.0 (Windows NT 10.0; Win64; x64) AppleWebKit/537.36 (KHTML, like Gecko) Chrome/99.0.4844.51 Safari/537.36" etag="AjfnhHtnROvL6JugNz2M" version="17.1.3" type="github" pages="3">
  <diagram id="y_iolCZEPDSHA-SLJ0tp" name="系统上下文">
    <mxGraphModel dx="1102" dy="580" grid="0" gridSize="10" guides="1" tooltips="1" connect="1" arrows="1" fold="1" page="1" pageScale="1" pageWidth="827" pageHeight="1169" math="0" shadow="0">
      <root>
        <mxCell id="0" />
        <mxCell id="1" parent="0" />
        <mxCell id="skqXGCLmf4I1kx5urx1h-1" value="订单系统" style="rounded=0;whiteSpace=wrap;html=1;" parent="1" vertex="1">
          <mxGeometry x="196" y="156" width="120" height="60" as="geometry" />
        </mxCell>
      </root>
    </mxGraphModel>
  </diagram>
  <diagram id="RHc_LpIk4cclD5amiReK" name="业务全流程">
    <mxGraphModel dx="958" dy="475" grid="0" gridSize="10" guides="1" tooltips="1" connect="1" arrows="1" fold="1" page="1" pageScale="1" pageWidth="827" pageHeight="1169" math="0" shadow="0">
      <root>
        <mxCell id="N9k8VHP51fsY8XotcgjF-0" />
        <mxCell id="N9k8VHP51fsY8XotcgjF-1" parent="N9k8VHP51fsY8XotcgjF-0" />
        <mxCell id="N9k8VHP51fsY8XotcgjF-8" style="edgeStyle=orthogonalEdgeStyle;rounded=0;orthogonalLoop=1;jettySize=auto;html=1;entryX=0;entryY=0.5;entryDx=0;entryDy=0;" edge="1" parent="N9k8VHP51fsY8XotcgjF-1" source="N9k8VHP51fsY8XotcgjF-2" target="N9k8VHP51fsY8XotcgjF-7">
          <mxGeometry relative="1" as="geometry" />
        </mxCell>
        <mxCell id="N9k8VHP51fsY8XotcgjF-2" value="" style="shape=actor;whiteSpace=wrap;html=1;" vertex="1" parent="N9k8VHP51fsY8XotcgjF-1">
          <mxGeometry x="235" y="256" width="40" height="60" as="geometry" />
        </mxCell>
        <mxCell id="N9k8VHP51fsY8XotcgjF-3" value="客户" style="text;html=1;strokeColor=none;fillColor=none;align=center;verticalAlign=middle;whiteSpace=wrap;rounded=0;" vertex="1" parent="N9k8VHP51fsY8XotcgjF-1">
          <mxGeometry x="225" y="320" width="60" height="30" as="geometry" />
        </mxCell>
        <mxCell id="N9k8VHP51fsY8XotcgjF-11" style="edgeStyle=orthogonalEdgeStyle;rounded=0;orthogonalLoop=1;jettySize=auto;html=1;entryX=0;entryY=0.5;entryDx=0;entryDy=0;" edge="1" parent="N9k8VHP51fsY8XotcgjF-1" source="N9k8VHP51fsY8XotcgjF-4" target="N9k8VHP51fsY8XotcgjF-10">
          <mxGeometry relative="1" as="geometry" />
        </mxCell>
        <mxCell id="N9k8VHP51fsY8XotcgjF-4" value="" style="shape=actor;whiteSpace=wrap;html=1;" vertex="1" parent="N9k8VHP51fsY8XotcgjF-1">
          <mxGeometry x="235" y="373" width="40" height="60" as="geometry" />
        </mxCell>
        <mxCell id="N9k8VHP51fsY8XotcgjF-5" value="客户运营" style="text;html=1;strokeColor=none;fillColor=none;align=center;verticalAlign=middle;whiteSpace=wrap;rounded=0;" vertex="1" parent="N9k8VHP51fsY8XotcgjF-1">
          <mxGeometry x="225" y="437" width="60" height="30" as="geometry" />
        </mxCell>
        <mxCell id="N9k8VHP51fsY8XotcgjF-7" value="开工啦APP" style="rounded=0;whiteSpace=wrap;html=1;" vertex="1" parent="N9k8VHP51fsY8XotcgjF-1">
          <mxGeometry x="335" y="256" width="120" height="60" as="geometry" />
        </mxCell>
        <mxCell id="N9k8VHP51fsY8XotcgjF-9" value="开工啦小程序" style="rounded=0;whiteSpace=wrap;html=1;" vertex="1" parent="N9k8VHP51fsY8XotcgjF-1">
          <mxGeometry x="335" y="176" width="120" height="60" as="geometry" />
        </mxCell>
        <mxCell id="N9k8VHP51fsY8XotcgjF-10" value="Boss" style="rounded=0;whiteSpace=wrap;html=1;" vertex="1" parent="N9k8VHP51fsY8XotcgjF-1">
          <mxGeometry x="338" y="373" width="120" height="60" as="geometry" />
        </mxCell>
        <mxCell id="N9k8VHP51fsY8XotcgjF-15" style="edgeStyle=orthogonalEdgeStyle;rounded=0;orthogonalLoop=1;jettySize=auto;html=1;" edge="1" parent="N9k8VHP51fsY8XotcgjF-1" source="N9k8VHP51fsY8XotcgjF-12" target="N9k8VHP51fsY8XotcgjF-14">
          <mxGeometry relative="1" as="geometry" />
        </mxCell>
        <mxCell id="N9k8VHP51fsY8XotcgjF-12" value="" style="shape=actor;whiteSpace=wrap;html=1;" vertex="1" parent="N9k8VHP51fsY8XotcgjF-1">
          <mxGeometry x="235" y="500" width="40" height="60" as="geometry" />
        </mxCell>
        <mxCell id="N9k8VHP51fsY8XotcgjF-13" value="客户BD" style="text;html=1;strokeColor=none;fillColor=none;align=center;verticalAlign=middle;whiteSpace=wrap;rounded=0;" vertex="1" parent="N9k8VHP51fsY8XotcgjF-1">
          <mxGeometry x="228" y="566" width="60" height="30" as="geometry" />
        </mxCell>
        <mxCell id="N9k8VHP51fsY8XotcgjF-14" value="铁军APP" style="rounded=0;whiteSpace=wrap;html=1;" vertex="1" parent="N9k8VHP51fsY8XotcgjF-1">
          <mxGeometry x="335" y="500" width="120" height="60" as="geometry" />
        </mxCell>
        <mxCell id="N9k8VHP51fsY8XotcgjF-21" style="edgeStyle=orthogonalEdgeStyle;rounded=0;orthogonalLoop=1;jettySize=auto;html=1;entryX=0;entryY=0.5;entryDx=0;entryDy=0;" edge="1" parent="N9k8VHP51fsY8XotcgjF-1" source="N9k8VHP51fsY8XotcgjF-16" target="N9k8VHP51fsY8XotcgjF-19">
          <mxGeometry relative="1" as="geometry" />
        </mxCell>
        <mxCell id="N9k8VHP51fsY8XotcgjF-22" style="edgeStyle=orthogonalEdgeStyle;rounded=0;orthogonalLoop=1;jettySize=auto;html=1;entryX=0.004;entryY=0.542;entryDx=0;entryDy=0;entryPerimeter=0;" edge="1" parent="N9k8VHP51fsY8XotcgjF-1" source="N9k8VHP51fsY8XotcgjF-16" target="N9k8VHP51fsY8XotcgjF-20">
          <mxGeometry relative="1" as="geometry">
            <Array as="points">
              <mxPoint x="679" y="286" />
              <mxPoint x="679" y="358" />
            </Array>
          </mxGeometry>
        </mxCell>
        <mxCell id="N9k8VHP51fsY8XotcgjF-16" value="选品" style="rounded=0;whiteSpace=wrap;html=1;" vertex="1" parent="N9k8VHP51fsY8XotcgjF-1">
          <mxGeometry x="527" y="241" width="120" height="60" as="geometry" />
        </mxCell>
        <mxCell id="N9k8VHP51fsY8XotcgjF-19" value="填加购物车" style="rounded=0;whiteSpace=wrap;html=1;" vertex="1" parent="N9k8VHP51fsY8XotcgjF-1">
          <mxGeometry x="714" y="140" width="120" height="60" as="geometry" />
        </mxCell>
        <mxCell id="N9k8VHP51fsY8XotcgjF-28" style="edgeStyle=orthogonalEdgeStyle;rounded=0;orthogonalLoop=1;jettySize=auto;html=1;entryX=0.454;entryY=0.022;entryDx=0;entryDy=0;entryPerimeter=0;" edge="1" parent="N9k8VHP51fsY8XotcgjF-1" source="N9k8VHP51fsY8XotcgjF-20" target="N9k8VHP51fsY8XotcgjF-27">
          <mxGeometry relative="1" as="geometry">
            <Array as="points">
              <mxPoint x="737" y="433" />
              <mxPoint x="635" y="433" />
            </Array>
          </mxGeometry>
        </mxCell>
        <mxCell id="N9k8VHP51fsY8XotcgjF-29" style="edgeStyle=orthogonalEdgeStyle;rounded=0;orthogonalLoop=1;jettySize=auto;html=1;" edge="1" parent="N9k8VHP51fsY8XotcgjF-1" source="N9k8VHP51fsY8XotcgjF-20" target="N9k8VHP51fsY8XotcgjF-24">
          <mxGeometry relative="1" as="geometry">
            <Array as="points">
              <mxPoint x="779" y="434" />
              <mxPoint x="870" y="434" />
            </Array>
          </mxGeometry>
        </mxCell>
        <mxCell id="N9k8VHP51fsY8XotcgjF-20" value="去下单" style="rounded=0;whiteSpace=wrap;html=1;" vertex="1" parent="N9k8VHP51fsY8XotcgjF-1">
          <mxGeometry x="707" y="326" width="120" height="60" as="geometry" />
        </mxCell>
        <mxCell id="N9k8VHP51fsY8XotcgjF-38" style="edgeStyle=orthogonalEdgeStyle;rounded=0;orthogonalLoop=1;jettySize=auto;html=1;" edge="1" parent="N9k8VHP51fsY8XotcgjF-1" source="N9k8VHP51fsY8XotcgjF-24">
          <mxGeometry relative="1" as="geometry">
            <mxPoint x="870" y="614" as="targetPoint" />
          </mxGeometry>
        </mxCell>
        <mxCell id="N9k8VHP51fsY8XotcgjF-24" value="确认提交订单" style="rounded=0;whiteSpace=wrap;html=1;" vertex="1" parent="N9k8VHP51fsY8XotcgjF-1">
          <mxGeometry x="810" y="481" width="120" height="60" as="geometry" />
        </mxCell>
        <mxCell id="N9k8VHP51fsY8XotcgjF-27" value="保存订单" style="rounded=0;whiteSpace=wrap;html=1;" vertex="1" parent="N9k8VHP51fsY8XotcgjF-1">
          <mxGeometry x="580" y="481" width="120" height="60" as="geometry" />
        </mxCell>
        <mxCell id="N9k8VHP51fsY8XotcgjF-41" style="edgeStyle=orthogonalEdgeStyle;rounded=0;orthogonalLoop=1;jettySize=auto;html=1;entryX=0.5;entryY=0;entryDx=0;entryDy=0;" edge="1" parent="N9k8VHP51fsY8XotcgjF-1" source="N9k8VHP51fsY8XotcgjF-39" target="N9k8VHP51fsY8XotcgjF-40">
          <mxGeometry relative="1" as="geometry" />
        </mxCell>
        <mxCell id="N9k8VHP51fsY8XotcgjF-39" value="分派商户" style="rounded=0;whiteSpace=wrap;html=1;" vertex="1" parent="N9k8VHP51fsY8XotcgjF-1">
          <mxGeometry x="813" y="614" width="120" height="60" as="geometry" />
        </mxCell>
        <mxCell id="N9k8VHP51fsY8XotcgjF-44" style="edgeStyle=orthogonalEdgeStyle;rounded=0;orthogonalLoop=1;jettySize=auto;html=1;" edge="1" parent="N9k8VHP51fsY8XotcgjF-1" source="N9k8VHP51fsY8XotcgjF-40" target="N9k8VHP51fsY8XotcgjF-43">
          <mxGeometry relative="1" as="geometry" />
        </mxCell>
        <mxCell id="N9k8VHP51fsY8XotcgjF-40" value="抢单" style="rounded=0;whiteSpace=wrap;html=1;" vertex="1" parent="N9k8VHP51fsY8XotcgjF-1">
          <mxGeometry x="813" y="749" width="120" height="60" as="geometry" />
        </mxCell>
        <mxCell id="N9k8VHP51fsY8XotcgjF-46" style="edgeStyle=orthogonalEdgeStyle;rounded=0;orthogonalLoop=1;jettySize=auto;html=1;" edge="1" parent="N9k8VHP51fsY8XotcgjF-1" source="N9k8VHP51fsY8XotcgjF-43" target="N9k8VHP51fsY8XotcgjF-45">
          <mxGeometry relative="1" as="geometry" />
        </mxCell>
        <mxCell id="N9k8VHP51fsY8XotcgjF-43" value="抢单成功？" style="rhombus;whiteSpace=wrap;html=1;" vertex="1" parent="N9k8VHP51fsY8XotcgjF-1">
          <mxGeometry x="837" y="889" width="80" height="80" as="geometry" />
        </mxCell>
        <mxCell id="N9k8VHP51fsY8XotcgjF-45" value="创建履约单" style="rounded=0;whiteSpace=wrap;html=1;" vertex="1" parent="N9k8VHP51fsY8XotcgjF-1">
          <mxGeometry x="817" y="1024" width="120" height="60" as="geometry" />
        </mxCell>
      </root>
    </mxGraphModel>
  </diagram>
  <diagram id="5A5lfGYTrCQL1lXl713B" name="订单系统模块图">
    <mxGraphModel dx="711" dy="374" grid="0" gridSize="10" guides="1" tooltips="1" connect="1" arrows="1" fold="1" page="1" pageScale="1" pageWidth="827" pageHeight="1169" math="0" shadow="0">
      <root>
        <mxCell id="nm2KSvU2BsOyXYlm7uL0-0" />
        <mxCell id="nm2KSvU2BsOyXYlm7uL0-1" parent="nm2KSvU2BsOyXYlm7uL0-0" />
        <mxCell id="nm2KSvU2BsOyXYlm7uL0-2" value="" style="rounded=0;whiteSpace=wrap;html=1;" vertex="1" parent="nm2KSvU2BsOyXYlm7uL0-1">
          <mxGeometry x="186" y="235" width="184" height="163" as="geometry" />
        </mxCell>
        <mxCell id="nm2KSvU2BsOyXYlm7uL0-3" value="" style="rounded=0;whiteSpace=wrap;html=1;" vertex="1" parent="nm2KSvU2BsOyXYlm7uL0-1">
          <mxGeometry x="424" y="235" width="184" height="164" as="geometry" />
        </mxCell>
        <mxCell id="nm2KSvU2BsOyXYlm7uL0-6" value="子订单状态管理" style="rounded=0;whiteSpace=wrap;html=1;" vertex="1" parent="nm2KSvU2BsOyXYlm7uL0-1">
          <mxGeometry x="423.5" y="606" width="185" height="70" as="geometry" />
        </mxCell>
        <mxCell id="nm2KSvU2BsOyXYlm7uL0-7" value="异常&lt;br&gt;监&amp;amp;控" style="rounded=0;whiteSpace=wrap;html=1;" vertex="1" parent="nm2KSvU2BsOyXYlm7uL0-1">
          <mxGeometry x="647" y="118" width="70" height="250" as="geometry" />
        </mxCell>
        <mxCell id="nm2KSvU2BsOyXYlm7uL0-8" value="" style="rounded=0;whiteSpace=wrap;html=1;" vertex="1" parent="nm2KSvU2BsOyXYlm7uL0-1">
          <mxGeometry x="186" y="118" width="182" height="98" as="geometry" />
        </mxCell>
        <mxCell id="nm2KSvU2BsOyXYlm7uL0-9" value="购物车" style="text;html=1;strokeColor=none;fillColor=none;align=center;verticalAlign=middle;whiteSpace=wrap;rounded=0;fontStyle=1" vertex="1" parent="nm2KSvU2BsOyXYlm7uL0-1">
          <mxGeometry x="254" y="120" width="39" height="13" as="geometry" />
        </mxCell>
        <mxCell id="nm2KSvU2BsOyXYlm7uL0-10" value="我的购物车" style="rounded=0;whiteSpace=wrap;html=1;" vertex="1" parent="nm2KSvU2BsOyXYlm7uL0-1">
          <mxGeometry x="194" y="148" width="70" height="24" as="geometry" />
        </mxCell>
        <mxCell id="nm2KSvU2BsOyXYlm7uL0-11" value="添加购物车" style="rounded=0;whiteSpace=wrap;html=1;" vertex="1" parent="nm2KSvU2BsOyXYlm7uL0-1">
          <mxGeometry x="282" y="148" width="70" height="24" as="geometry" />
        </mxCell>
        <mxCell id="nm2KSvU2BsOyXYlm7uL0-12" value="清空购物车" style="rounded=0;whiteSpace=wrap;html=1;" vertex="1" parent="nm2KSvU2BsOyXYlm7uL0-1">
          <mxGeometry x="194" y="182" width="70" height="24" as="geometry" />
        </mxCell>
        <mxCell id="nm2KSvU2BsOyXYlm7uL0-13" value="修改购物车" style="rounded=0;whiteSpace=wrap;html=1;" vertex="1" parent="nm2KSvU2BsOyXYlm7uL0-1">
          <mxGeometry x="282" y="182" width="70" height="24" as="geometry" />
        </mxCell>
        <mxCell id="nm2KSvU2BsOyXYlm7uL0-14" value="主订单" style="text;html=1;strokeColor=none;fillColor=none;align=center;verticalAlign=middle;whiteSpace=wrap;rounded=0;fontStyle=1" vertex="1" parent="nm2KSvU2BsOyXYlm7uL0-1">
          <mxGeometry x="254" y="246" width="39" height="13" as="geometry" />
        </mxCell>
        <mxCell id="nm2KSvU2BsOyXYlm7uL0-15" value="保存草稿" style="rounded=0;whiteSpace=wrap;html=1;" vertex="1" parent="nm2KSvU2BsOyXYlm7uL0-1">
          <mxGeometry x="194" y="267" width="70" height="24" as="geometry" />
        </mxCell>
        <mxCell id="nm2KSvU2BsOyXYlm7uL0-16" value="提交订单" style="rounded=0;whiteSpace=wrap;html=1;" vertex="1" parent="nm2KSvU2BsOyXYlm7uL0-1">
          <mxGeometry x="194" y="300" width="70" height="24" as="geometry" />
        </mxCell>
        <mxCell id="nm2KSvU2BsOyXYlm7uL0-17" value="取消订单" style="rounded=0;whiteSpace=wrap;html=1;" vertex="1" parent="nm2KSvU2BsOyXYlm7uL0-1">
          <mxGeometry x="286" y="267" width="70" height="24" as="geometry" />
        </mxCell>
        <mxCell id="nm2KSvU2BsOyXYlm7uL0-18" value="编辑订单" style="rounded=0;whiteSpace=wrap;html=1;" vertex="1" parent="nm2KSvU2BsOyXYlm7uL0-1">
          <mxGeometry x="286" y="300" width="70" height="24" as="geometry" />
        </mxCell>
        <mxCell id="nm2KSvU2BsOyXYlm7uL0-19" value="查看订单" style="rounded=0;whiteSpace=wrap;html=1;" vertex="1" parent="nm2KSvU2BsOyXYlm7uL0-1">
          <mxGeometry x="194" y="336" width="70" height="24" as="geometry" />
        </mxCell>
        <mxCell id="nm2KSvU2BsOyXYlm7uL0-21" value="" style="rounded=0;whiteSpace=wrap;html=1;" vertex="1" parent="nm2KSvU2BsOyXYlm7uL0-1">
          <mxGeometry x="185" y="445" width="185" height="117" as="geometry" />
        </mxCell>
        <mxCell id="nm2KSvU2BsOyXYlm7uL0-22" value="主订单行" style="text;html=1;strokeColor=none;fillColor=none;align=center;verticalAlign=middle;whiteSpace=wrap;rounded=0;fontStyle=1" vertex="1" parent="nm2KSvU2BsOyXYlm7uL0-1">
          <mxGeometry x="255" y="454" width="55" height="12" as="geometry" />
        </mxCell>
        <mxCell id="nm2KSvU2BsOyXYlm7uL0-23" value="取消订单行" style="rounded=0;whiteSpace=wrap;html=1;fontStyle=0" vertex="1" parent="nm2KSvU2BsOyXYlm7uL0-1">
          <mxGeometry x="198" y="518" width="70" height="24" as="geometry" />
        </mxCell>
        <mxCell id="nm2KSvU2BsOyXYlm7uL0-24" value="查看订单行" style="rounded=0;whiteSpace=wrap;html=1;" vertex="1" parent="nm2KSvU2BsOyXYlm7uL0-1">
          <mxGeometry x="287" y="518" width="70" height="24" as="geometry" />
        </mxCell>
        <mxCell id="nm2KSvU2BsOyXYlm7uL0-25" value="添加订单行" style="rounded=0;whiteSpace=wrap;html=1;" vertex="1" parent="nm2KSvU2BsOyXYlm7uL0-1">
          <mxGeometry x="198" y="479" width="70" height="24" as="geometry" />
        </mxCell>
        <mxCell id="nm2KSvU2BsOyXYlm7uL0-26" value="编辑订单行" style="rounded=0;whiteSpace=wrap;html=1;" vertex="1" parent="nm2KSvU2BsOyXYlm7uL0-1">
          <mxGeometry x="287" y="479" width="70" height="24" as="geometry" />
        </mxCell>
        <mxCell id="nm2KSvU2BsOyXYlm7uL0-27" value="子订单" style="text;html=1;strokeColor=none;fillColor=none;align=center;verticalAlign=middle;whiteSpace=wrap;rounded=0;fontStyle=1" vertex="1" parent="nm2KSvU2BsOyXYlm7uL0-1">
          <mxGeometry x="486" y="240" width="39" height="13" as="geometry" />
        </mxCell>
        <mxCell id="nm2KSvU2BsOyXYlm7uL0-28" value="取消订单" style="rounded=0;whiteSpace=wrap;html=1;" vertex="1" parent="nm2KSvU2BsOyXYlm7uL0-1">
          <mxGeometry x="444" y="271" width="70" height="24" as="geometry" />
        </mxCell>
        <mxCell id="nm2KSvU2BsOyXYlm7uL0-29" value="查看订单" style="rounded=0;whiteSpace=wrap;html=1;" vertex="1" parent="nm2KSvU2BsOyXYlm7uL0-1">
          <mxGeometry x="525" y="271" width="70" height="24" as="geometry" />
        </mxCell>
        <mxCell id="nm2KSvU2BsOyXYlm7uL0-30" value="提交订单" style="rounded=0;whiteSpace=wrap;html=1;" vertex="1" parent="nm2KSvU2BsOyXYlm7uL0-1">
          <mxGeometry x="444" y="304.5" width="70" height="24" as="geometry" />
        </mxCell>
        <mxCell id="nm2KSvU2BsOyXYlm7uL0-32" style="edgeStyle=orthogonalEdgeStyle;rounded=0;orthogonalLoop=1;jettySize=auto;html=1;exitX=0.741;exitY=1.001;exitDx=0;exitDy=0;exitPerimeter=0;" edge="1" parent="nm2KSvU2BsOyXYlm7uL0-1" source="nm2KSvU2BsOyXYlm7uL0-3">
          <mxGeometry relative="1" as="geometry">
            <mxPoint x="561" y="605" as="targetPoint" />
          </mxGeometry>
        </mxCell>
        <mxCell id="nm2KSvU2BsOyXYlm7uL0-31" value="完结订单" style="rounded=0;whiteSpace=wrap;html=1;" vertex="1" parent="nm2KSvU2BsOyXYlm7uL0-1">
          <mxGeometry x="525" y="305" width="70" height="24" as="geometry" />
        </mxCell>
        <mxCell id="nm2KSvU2BsOyXYlm7uL0-33" value="通知变更订单状态" style="text;html=1;strokeColor=none;fillColor=none;align=center;verticalAlign=middle;whiteSpace=wrap;rounded=0;" vertex="1" parent="nm2KSvU2BsOyXYlm7uL0-1">
          <mxGeometry x="574" y="477" width="103" height="24" as="geometry" />
        </mxCell>
        <mxCell id="nm2KSvU2BsOyXYlm7uL0-34" value="主订单状态管理" style="rounded=0;whiteSpace=wrap;html=1;" vertex="1" parent="nm2KSvU2BsOyXYlm7uL0-1">
          <mxGeometry x="186" y="606" width="185" height="70" as="geometry" />
        </mxCell>
        <mxCell id="nm2KSvU2BsOyXYlm7uL0-35" value="" style="rounded=0;whiteSpace=wrap;html=1;" vertex="1" parent="nm2KSvU2BsOyXYlm7uL0-1">
          <mxGeometry x="186" y="751" width="424" height="106" as="geometry" />
        </mxCell>
        <mxCell id="nm2KSvU2BsOyXYlm7uL0-36" value="状态管理" style="text;html=1;strokeColor=none;fillColor=none;align=center;verticalAlign=middle;whiteSpace=wrap;rounded=0;fontStyle=1" vertex="1" parent="nm2KSvU2BsOyXYlm7uL0-1">
          <mxGeometry x="366" y="763" width="63" height="10" as="geometry" />
        </mxCell>
      </root>
    </mxGraphModel>
  </diagram>
</mxfile>
